# xmcd CD database file
#
# Track frame offsets:
#	150
#	20870
#	39733
#	49722
#	75445
#	92711
#	109101
#	127448
#	144264
#	168436
#	177863
#	206999
#	227873
#	249596
#
# Disc length: 3924 seconds
#
# Revision: 1
# Processed by: cddbd v1.4PL0 Copyright (c) Steve Scherf et al.
# Submitted via: CDex 1.40Release
#
DISCID=c70f520e
DTITLE=Sugarland Slim - Texan Calypso
DYEAR=2001
DGENRE=Blues
TTITLE0=Boxcar Hilton
TTITLE1=Cryin' anyway
TTITLE2=Maria
TTITLE3=Lady Luck
TTITLE4=Million year blues
TTITLE5=Fall
TTITLE6=I lika Lika!
TTITLE7=Keep movin'
TTITLE8=Beggerman's rag
TTITLE9=Mary
TTITLE10=You, me and Molly (For Jools)
TTITLE11=Heavy load
TTITLE12=Row boat blues
TTITLE13=Dirty girl_Lousy guy
EXTD=YEAR: 2001 ID3G: 0
EXTT0=
EXTT1=
EXTT2=
EXTT3=
EXTT4=
EXTT5=
EXTT6=
EXTT7=
EXTT8=
EXTT9=
EXTT10=
EXTT11=
EXTT12=
EXTT13=
PLAYORDER=
